# xmcd
#
# Track frame offsets: 
#        150
#        15172
#        28962
#        44242
#        59847
#        69797
#        83705
#        95847
#        105817
#        120702
#
# Disc length: 1738 seconds
#
# Revision: 0
# Processed by: cddbd v1.5.2PL0 Copyright (c) Steve Scherf et al.
# Submitted via: ExactAudioCopy v0.99pb4
#
DISCID=8006c80a
DTITLE=Chuck Wagon Gang - Homecoming
DYEAR=1984
DGENRE=Gospel
TTITLE0=Homecoming
TTITLE1=Come With Me
TTITLE2=The Red, White, Blue and Grey
TTITLE3=My Dream Home In Glory
TTITLE4=Keep The Fire Burning
TTITLE5=He Will Set Your Fields On Fire
TTITLE6=Walking With Jesus
TTITLE7=Down The Road
TTITLE8=Mama Sing
TTITLE9=Keep On The Firing Line
EXTD=
EXTT0=
EXTT1=
EXTT2=
EXTT3=
EXTT4=
EXTT5=
EXTT6=
EXTT7=
EXTT8=
EXTT9=
PLAYORDER=
